HIERARCHY
ROOT Hips
{
  OFFSET 0 0 0
  CHANNELS 6 Xposition Yposition Zposition Zrotation Yrotation Xrotation
  JOINT LeftThigh
  {
    OFFSET 8.409438 0 -5.917753
    CHANNELS 3 Zrotation Yrotation Xrotation
    JOINT LeftLeg
    {
      OFFSET 0 0 -42.358652
      CHANNELS 3 Zrotation Yrotation Xrotation
      JOINT LeftFoot
      {
        OFFSET 0 0 -39.357303
        CHANNELS 3 Zrotation Yrotation Xrotation
      }
    }
  }
  JOINT RightThigh
  {
    OFFSET -8.409438 0 -5.917753
    CHANNELS 3 Zrotation Yrotation Xrotation
    JOINT RightLeg
    {
      OFFSET 0 0 -42.358652
      CHANNELS 3 Zrotation Yrotation Xrotation
      JOINT RightFoot
      {
        OFFSET 0 0 -39.357303
        CHANNELS 3 Zrotation Yrotation Xrotation
      }
    }
  }
  JOINT SpineLow
  {
    OFFSET 0 0 4.719101
    CHANNELS 3 Zrotation Yrotation Xrotation
    JOINT SpineMid
    {
      OFFSET 0 0 12.899191
      CHANNELS 3 Zrotation Yrotation Xrotation
      JOINT Chest
      {
        OFFSET 0 0 12.899191
        CHANNELS 3 Zrotation Yrotation Xrotation
        JOINT LeftShoulder
        {
          OFFSET 7.550562 1.41573 9.438202
          CHANNELS 3 Zrotation Yrotation Xrotation
          JOINT LeftArm
          {
            OFFSET 9.155056 0 4.247191
            CHANNELS 3 Zrotation Yrotation Xrotation
            JOINT LeftForearm
            {
              OFFSET 0 0 25.771955
              CHANNELS 3 Zrotation Yrotation Xrotation
              JOINT LeftHand
              {
                OFFSET 0 0 25.197169
                CHANNELS 3 Zrotation Yrotation Xrotation
              }
            }
          }
        }
        JOINT RightShoulder
        {
          OFFSET -7.550562 1.41573 9.438202
          CHANNELS 3 Zrotation Yrotation Xrotation
          JOINT RightArm
          {
            OFFSET -9.155056 0 4.247191
            CHANNELS 3 Zrotation Yrotation Xrotation
            JOINT RightForearm
            {
              OFFSET 0 0 -25.771955
              CHANNELS 3 Zrotation Yrotation Xrotation
              JOINT RightHand
              {
                OFFSET 0 0 -25.197169
                CHANNELS 3 Zrotation Yrotation Xrotation
              }
            }
          }
        }
        JOINT Neck
        {
          OFFSET 0 0 15.101124
          CHANNELS 3 Zrotation Yrotation Xrotation
          JOINT Head
          {
            OFFSET 0 0 11.325843
            CHANNELS 3 Zrotation Yrotation Xrotation
            End Site
            {
              OFFSET 0 0 14.157303
            }
          }
        }
      }
    }
  }
}
MOTION
Frames: 17
Frame Time: 0.0
0.0  89.887642  0.0  1.122429  11.754773  -89.377807  46.260801  -35.55513  -2.111301  -6.143014  22.649769  40.031486  -0.225276  -1.462042  -3.92543  -13.032327  2.912242  -47.999554  10.158619  -2.881177  57.099577  4.829851  1.910984  3.300286  0.337501  0.860161  0.451659  0.938919  2.344712  1.247028  0.938919  2.344712  1.247027  -6.534902  13.787955  10.461684  126.554297  47.557407  -160.104041  -26.251814  -0.651698  80.389003  77.090796  -16.330936  17.526866  3.509465  -6.271721  11.87216  15.429303  62.107469  -38.430202  -32.080565  -20.339212  -75.494435  79.170252  -0.770811  -8.931289  -11.426693  -2.236143  -2.907028  -8.579797  -1.623468  -2.22275  
0.0  89.887642  0.0  1.338681  11.59043  -89.365354  46.141061  -35.444917  -1.707043  -6.028377  22.700767  39.938865  -0.324331  -1.472101  -3.978719  -12.653563  3.290946  -48.198407  10.039502  -2.832002  57.272482  4.793618  1.92063  3.293756  0.354057  0.920717  0.542331  0.988815  2.508538  1.496517  0.988815  2.508538  1.496517  -6.500791  13.363464  9.759237  126.856021  47.449589  -159.996092  -26.367351  -0.569289  80.498748  77.043038  -16.17884  17.546847  3.778375  -6.493518  11.094676  16.010035  61.916187  -37.544926  -32.08344  -20.328017  -75.627768  79.120236  -0.833019  -8.884381  -11.428569  -2.54995  -3.286508  -8.584019  -1.851836  -2.513236  
0.0  89.887642  0.0  1.547445  11.416395  -89.399086  45.987811  -35.283925  -1.274852  -6.197721  22.70792  39.607083  -0.142383  -1.331509  -3.87543  -12.560491  3.599153  -48.467177  10.150683  -2.947067  57.504428  4.768519  1.930378  3.290337  0.308677  0.978292  0.642022  0.870085  2.665598  1.768244  0.870085  2.665598  1.768245  -6.048357  12.950969  9.030488  127.106712  47.358082  -159.669519  -26.576411  -0.60123  80.502841  77.013503  -15.977041  17.550124  4.577128  -6.803253  10.33727  16.502285  61.898367  -36.631852  -32.123614  -20.40213  -75.826814  79.041405  -0.91541  -8.761627  -11.187348  -2.849227  -3.692865  -8.406363  -2.070237  -2.8224  
0.0  89.887642  0.0  1.797492  11.204538  -89.487333  45.852241  -35.167487  -0.714342  -6.246461  22.69947  39.414946  -0.228189  -1.308219  -3.905248  -12.127799  4.025999  -48.571654  10.037145  -2.87297  57.716138  4.737419  1.938407  3.27853  0.303633  1.035976  0.753681  0.86264  2.821901  2.074249  0.86264  2.8219  2.074249  -5.847171  12.60228  8.287905  127.612677  47.282702  -159.391462  -26.706812  -0.464527  80.76499  77.036777  -15.751591  17.521281  5.071635  -6.951482  9.512017  16.692431  61.78308  -35.97369  -32.003603  -20.619368  -76.103129  78.87996  -1.068125  -8.565583  -11.126194  -3.148764  -4.111583  -8.364183  -2.28775  -3.141527  
0.0  89.887642  0.0  2.039207  10.88768  -89.596333  45.760543  -34.977017  -0.10876  -6.504233  22.642482  39.030344  -0.154711  -1.193606  -3.848964  -11.641697  4.429576  -48.736139  9.939634  -2.791457  58.006122  4.73201  1.95204  3.279873  0.367208  1.095036  0.831495  1.041906  2.98005  2.290817  1.041906  2.980051  2.290817  -6.014553  12.21403  7.76341  128.087922  47.202559  -158.966893  -27.053414  -0.359706  80.965616  77.144219  -15.433315  17.461513  5.191347  -7.213185  8.991186  16.654724  61.837228  -35.457688  -31.823446  -20.946995  -76.481477  78.679734  -1.280042  -8.267891  -11.312341  -3.411141  -4.402177  -8.506854  -2.478044  -3.365237  
0.0  89.887642  0.0  2.302444  10.581163  -89.649977  45.726368  -34.826098  0.484653  -6.801974  22.669905  38.634164  -0.170619  -1.129534  -3.82352  -11.029613  4.914717  -48.955956  9.698987  -2.633079  58.361512  4.707886  1.962499  3.270462  0.452726  1.162995  0.899639  1.281471  3.161443  2.482503  1.281471  3.161443  2.482503  -6.33396  11.879022  7.248969  128.781361  47.18767  -158.590379  -27.318641  -0.040565  81.433936  77.320064  -15.016851  17.36696  5.17265  -7.405089  8.473369  16.360536  61.84531  -35.160978  -31.570806  -21.338081  -76.92636  78.452016  -1.584696  -7.902056  -11.575469  -3.708937  -4.653618  -8.707426  -2.694911  -3.560852  
0.0  89.887642  0.0  2.5547  10.005763  -89.754531  45.775175  -34.671529  1.130477  -7.128328  22.700137  38.173903  -0.092206  -1.015733  -3.75743  -10.21538  5.390589  -49.194678  9.466751  -2.491506  58.829164  4.682579  1.961162  3.252183  0.511982  1.234193  0.950881  1.448904  3.35262  2.627229  1.448904  3.35262  2.627229  -6.238395  11.581213  6.854253  129.699087  47.321512  -158.00774  -27.597729  0.381968  81.975587  77.536914  -14.659468  17.324192  5.569686  -7.597476  8.088207  15.784605  61.90151  -35.096419  -31.176085  -21.805581  -77.502575  78.173444  -2.037963  -7.418483  -11.681592  -3.996073  -4.856168  -8.790075  -2.905736  -3.718758  
0.0  89.887642  0.0  2.776753  9.515581  -89.735613  45.769316  -34.523235  1.711614  -7.324214  22.751699  37.725929  -0.053294  -0.950498  -3.702316  -9.409602  5.794856  -49.559357  9.073828  -2.200705  59.392829  4.490443  1.850217  3.18894  0.598693  1.269235  0.958769  1.687932  3.4447  2.654173  1.687932  3.4447  2.654173  -6.424569  11.506495  6.675417  130.990495  47.65592  -157.071024  -27.822193  0.862528  82.623421  77.872817  -14.316733  17.369981  5.614269  -7.59487  7.857789  15.082718  61.982713  -35.122596  -30.639771  -22.378697  -78.258051  77.87617  -2.737383  -6.69079  -11.875803  -4.155028  -4.934196  -8.937212  -3.022007  -3.781591  
0.0  89.887642  0.0  2.953893  8.894267  -89.754468  45.793188  -34.371911  2.374448  -7.517424  22.73861  37.176428  -0.069218  -0.881643  -3.668309  -8.566788  6.149874  -49.951377  8.464101  -2.137409  60.118289  4.115916  2.021041  3.197245  0.694372  1.292052  0.941513  1.949684  3.503687  2.612671  1.949684  3.503687  2.61267  -6.720927  11.518264  6.569139  132.843992  48.244174  -155.909925  -27.96751  1.473241  83.470098  78.394553  -14.04527  17.448284  5.64273  -7.586485  7.763078  14.311982  62.16484  -35.191934  -30.002588  -22.994496  -79.210303  77.548161  -3.661448  -5.702296  -12.167768  -4.242089  -4.935901  -9.156653  -3.085015  -3.786618  
0.0  89.887642  0.0  3.084521  8.293362  -89.745711  45.750595  -34.233563  3.031476  -7.414744  22.6136  36.751679  -0.144619  -0.813857  -3.606304  -7.908834  6.252991  -50.331655  7.737555  -1.645773  60.935613  4.244307  2.1167  3.084845  0.814394  1.322086  0.91673  2.277905  3.58182  2.552323  2.277905  3.58182  2.552323  -7.280436  11.428511  6.555137  135.377576  49.288503  -154.30076  -27.955028  2.201931  84.463636  79.004707  -13.969405  17.489577  5.492658  -7.658346  7.610601  13.333476  62.40057  -35.413063  -29.273829  -23.576462  -80.33913  77.23995  -4.708864  -4.482321  -12.44692  -4.36076  -4.813589  -9.365747  -3.174364  -3.699243  
0.0  89.887642  0.0  3.19316  7.734919  -89.784523  45.736732  -34.125972  3.704964  -7.443391  22.436798  36.214156  -0.189041  -0.726978  -3.509684  -7.466834  6.072923  -50.609468  7.446876  -1.007531  61.695049  4.634202  1.843954  2.84632  0.895684  1.35496  0.893476  2.500345  3.669356  2.494426  2.500345  3.669356  2.494426  -7.713856  11.242835  6.50407  138.494914  50.726907  -152.294652  -27.843209  3.013592  85.612154  79.778533  -13.996826  17.391886  5.514391  -7.729906  7.403308  12.084687  62.773705  -35.890017  -28.528392  -24.149475  -81.634241  76.942875  -5.909273  -3.029374  -12.661303  -4.487874  -4.658056  -9.526013  -3.271331  -3.586738  
0.0  89.887642  0.0  3.300895  7.242657  -89.825861  45.727615  -34.044077  4.362631  -7.488121  22.193369  35.655621  -0.230566  -0.658031  -3.421894  -7.178862  5.672406  -50.844249  7.357682  -0.30662  62.441185  4.869415  1.816007  2.674735  0.929822  1.386588  0.87918  2.594212  3.75504  2.458535  2.594212  3.75504  2.458535  -7.863662  10.90729  6.313741  142.171189  52.556449  -149.74497  -27.526385  3.819847  86.978919  80.828878  -14.04233  16.921238  5.703091  -7.708323  7.03866  10.588784  63.260091  -36.721774  -27.823847  -24.582832  -83.012386  76.61974  -7.179115  -1.355378  -12.714732  -4.616074  -4.506411  -9.565576  -3.370288  -3.475996  
0.0  89.887642  0.0  3.455831  6.810695  -89.86471  45.700349  -33.958898  5.102375  -7.61751  21.878216  34.973027  -0.37269  -0.608544  -3.358955  -7.355311  5.144617  -51.169818  7.634792  0.093519  63.298478  4.894011  1.884354  2.554662  0.924874  1.434728  0.891748  2.583353  3.886268  2.494662  2.583353  3.886267  2.494662  -7.991913  10.406831  5.915074  146.447838  54.902934  -146.473561  -27.183862  4.215723  88.480764  82.276666  -13.940596  16.020693  5.943142  -7.520991  6.45072  8.672807  63.723844  -38.287658  -27.272611  -24.748026  -84.331199  76.288356  -8.428948  0.422987  -12.652606  -4.786262  -4.441798  -9.519354  -3.49978  -3.430462  
0.0  89.887642  0.0  3.684101  6.380552  -89.937134  45.679023  -33.870316  6.008753  -7.902238  21.511582  34.099052  -0.404576  -0.559841  -3.246102  -7.220831  4.52712  -51.210481  8.003376  0.42885  63.942879  4.532092  2.012657  2.516295  0.906697  1.496047  0.936403  2.538856  4.052775  2.61832  2.538856  4.052775  2.61832  -7.991773  9.781282  5.388094  150.86746  57.702791  -142.298422  -27.125175  3.628551  89.9186  84.175865  -13.541182  14.689526  6.205783  -7.30015  5.608434  6.063817  64.313052  -40.775594  -26.927051  -24.648865  -85.516195  76.001714  -9.620174  2.249237  -12.435452  -4.936949  -4.420225  -9.357147  -3.614818  -3.415482  
0.0  89.887642  0.0  3.974678  5.85513  -90.004704  45.496832  -33.694641  7.141538  -8.132462  21.082086  33.077008  -0.431933  -0.558427  -3.135507  -6.954494  3.96849  -51.172191  8.279773  0.730535  64.558302  4.162299  2.284126  2.423554  0.898598  1.563772  1.001996  2.523789  4.235606  2.800122  2.523789  4.235606  2.800123  -8.167845  9.120102  4.615479  155.940665  60.802326  -136.987436  -27.432839  1.936107  91.023702  86.435031  -12.813771  12.929093  6.15698  -6.888574  4.559718  2.865726  64.904733  -44.367959  -26.867102  -24.303118  -86.473154  75.871819  -10.646836  4.107393  -12.154804  -5.020429  -4.397993  -9.147005  -3.679855  -3.398063  
0.0  89.887642  0.0  4.321003  5.358389  -90.061211  44.900717  -33.368377  8.560127  -8.159824  20.527981  31.974413  -0.320197  -0.548414  -2.986449  -6.660587  3.520526  -51.0436  8.454835  0.99496  65.078657  3.745191  2.54855  2.305497  0.874511  1.637316  1.081928  2.466585  4.43455  3.020356  2.466585  4.43455  3.020356  -8.572448  8.35236  3.286095  161.942448  63.963056  -130.870078  -27.979135  -0.656611  91.913744  88.919685  -11.566769  10.600522  6.304797  -6.54212  3.291923  -1.321101  65.644851  -48.983886  -27.261379  -23.652212  -87.138124  75.917  -11.506785  5.953358  -11.727786  -5.009732  -4.291579  -8.825976  -3.676814  -3.314443  
0.0  89.887642  0.0  4.55396  4.768781  -90.117242  43.903641  -32.98094  10.144445  -7.841134  19.897998  30.833446  -0.204774  -0.576977  -2.849411  -6.26873  2.980474  -50.781024  8.582107  1.449668  65.504928  3.563486  2.739891  2.129293  0.837348  1.695139  1.170154  2.373831  4.591021  3.261667  2.373831  4.591021  3.261667  -9.036658  7.328139  1.441049  168.965108  66.866645  -123.938119  -28.684451  -4.123396  92.576994  91.524303  -9.652761  7.704835  6.178471  -6.259591  1.671338  -5.287592  66.482038  -54.001007  -28.281157  -22.49156  -87.466406  75.989928  -12.19344  7.667522  -11.22761  -4.948307  -4.152957  -8.449606  -3.636635  -3.205178  
